<mxfile host="app.diagrams.net" agent="Mozilla/5.0 (Windows NT 10.0; Win64; x64) AppleWebKit/537.36 (KHTML, like Gecko) Chrome/130.0.0.0 Safari/537.36 Edg/130.0.0.0" version="24.8.0">
  <diagram name="Página-1" id="e51a0cEEDNVCvmJJ5kB8">
    <mxGraphModel dx="2316" dy="2367" grid="1" gridSize="10" guides="1" tooltips="1" connect="1" arrows="1" fold="1" page="1" pageScale="1" pageWidth="827" pageHeight="1169" background="#FFFFFF" math="0" shadow="0">
      <root>
        <mxCell id="0" />
        <mxCell id="1" parent="0" />
        <mxCell id="pOjfTVnRhu2lNELUSCSo-1" value="Sistema interno" style="swimlane;whiteSpace=wrap;html=1;startSize=20;fontStyle=2" parent="1" vertex="1">
          <mxGeometry x="190" y="-340" width="480" height="970" as="geometry" />
        </mxCell>
        <mxCell id="pOjfTVnRhu2lNELUSCSo-45" value="&amp;lt;&amp;lt;extend&amp;gt;&amp;gt;" style="edgeStyle=orthogonalEdgeStyle;rounded=0;orthogonalLoop=1;jettySize=auto;html=1;entryX=0;entryY=0.5;entryDx=0;entryDy=0;dashed=1;dashPattern=8 8;" parent="pOjfTVnRhu2lNELUSCSo-1" source="pOjfTVnRhu2lNELUSCSo-5" target="pOjfTVnRhu2lNELUSCSo-43" edge="1">
          <mxGeometry relative="1" as="geometry">
            <Array as="points">
              <mxPoint x="255" y="50" />
              <mxPoint x="255" y="60" />
            </Array>
          </mxGeometry>
        </mxCell>
        <mxCell id="pOjfTVnRhu2lNELUSCSo-5" value="Realizar login" style="ellipse;whiteSpace=wrap;html=1;" parent="pOjfTVnRhu2lNELUSCSo-1" vertex="1">
          <mxGeometry x="70" y="20" width="120" height="60" as="geometry" />
        </mxCell>
        <mxCell id="pOjfTVnRhu2lNELUSCSo-6" value="Visualizar banco de questões" style="ellipse;whiteSpace=wrap;html=1;" parent="pOjfTVnRhu2lNELUSCSo-1" vertex="1">
          <mxGeometry x="163" y="120" width="120" height="60" as="geometry" />
        </mxCell>
        <mxCell id="pOjfTVnRhu2lNELUSCSo-7" value="Assistir aulas" style="ellipse;whiteSpace=wrap;html=1;" parent="pOjfTVnRhu2lNELUSCSo-1" vertex="1">
          <mxGeometry x="163" y="190" width="120" height="60" as="geometry" />
        </mxCell>
        <mxCell id="pOjfTVnRhu2lNELUSCSo-8" value="Participar de lives" style="ellipse;whiteSpace=wrap;html=1;" parent="pOjfTVnRhu2lNELUSCSo-1" vertex="1">
          <mxGeometry x="164.75" y="260" width="116.5" height="50" as="geometry" />
        </mxCell>
        <mxCell id="pOjfTVnRhu2lNELUSCSo-27" value="&amp;lt;&amp;lt;include&amp;gt;&amp;gt;" style="edgeStyle=orthogonalEdgeStyle;rounded=0;orthogonalLoop=1;jettySize=auto;html=1;entryX=0;entryY=0.5;entryDx=0;entryDy=0;dashed=1;dashPattern=12 12;" parent="pOjfTVnRhu2lNELUSCSo-1" source="pOjfTVnRhu2lNELUSCSo-10" target="pOjfTVnRhu2lNELUSCSo-11" edge="1">
          <mxGeometry relative="1" as="geometry" />
        </mxCell>
        <mxCell id="pOjfTVnRhu2lNELUSCSo-10" value="Enviar duvidas no chat" style="ellipse;whiteSpace=wrap;html=1;" parent="pOjfTVnRhu2lNELUSCSo-1" vertex="1">
          <mxGeometry x="47.379999999999995" y="340" width="120" height="50" as="geometry" />
        </mxCell>
        <mxCell id="pOjfTVnRhu2lNELUSCSo-11" value="Responder duvidas no chat" style="ellipse;whiteSpace=wrap;html=1;" parent="pOjfTVnRhu2lNELUSCSo-1" vertex="1">
          <mxGeometry x="290" y="340" width="120" height="50" as="geometry" />
        </mxCell>
        <mxCell id="pOjfTVnRhu2lNELUSCSo-12" value="Ver vídeo de resolução de vestibular" style="ellipse;whiteSpace=wrap;html=1;" parent="pOjfTVnRhu2lNELUSCSo-1" vertex="1">
          <mxGeometry x="80" y="420" width="140" height="50" as="geometry" />
        </mxCell>
        <mxCell id="pOjfTVnRhu2lNELUSCSo-13" value="Criar aulas interdisciplinares" style="ellipse;whiteSpace=wrap;html=1;" parent="pOjfTVnRhu2lNELUSCSo-1" vertex="1">
          <mxGeometry x="168.37" y="490" width="111.25" height="50" as="geometry" />
        </mxCell>
        <mxCell id="pOjfTVnRhu2lNELUSCSo-14" value="Gerenciar conteúdos de aula&amp;nbsp;" style="ellipse;whiteSpace=wrap;html=1;" parent="pOjfTVnRhu2lNELUSCSo-1" vertex="1">
          <mxGeometry x="230" y="580" width="120" height="60" as="geometry" />
        </mxCell>
        <mxCell id="pOjfTVnRhu2lNELUSCSo-15" value="Gerenciar questões do banco de questões" style="ellipse;whiteSpace=wrap;html=1;" parent="pOjfTVnRhu2lNELUSCSo-1" vertex="1">
          <mxGeometry x="90" y="630" width="120" height="80" as="geometry" />
        </mxCell>
        <mxCell id="pOjfTVnRhu2lNELUSCSo-16" value="Verificar estatística de desempenho" style="ellipse;whiteSpace=wrap;html=1;" parent="pOjfTVnRhu2lNELUSCSo-1" vertex="1">
          <mxGeometry x="70" y="760" width="120" height="80" as="geometry" />
        </mxCell>
        <mxCell id="pOjfTVnRhu2lNELUSCSo-17" value="Participar de foruns de discussao" style="ellipse;whiteSpace=wrap;html=1;" parent="pOjfTVnRhu2lNELUSCSo-1" vertex="1">
          <mxGeometry x="170" y="845" width="120" height="80" as="geometry" />
        </mxCell>
        <mxCell id="pOjfTVnRhu2lNELUSCSo-31" value="Gravar resolução de vestibular" style="ellipse;whiteSpace=wrap;html=1;" parent="pOjfTVnRhu2lNELUSCSo-1" vertex="1">
          <mxGeometry x="300" y="430" width="120" height="50" as="geometry" />
        </mxCell>
        <mxCell id="pOjfTVnRhu2lNELUSCSo-43" value="Cadastrar usuário" style="ellipse;whiteSpace=wrap;html=1;" parent="pOjfTVnRhu2lNELUSCSo-1" vertex="1">
          <mxGeometry x="320" y="20" width="120" height="80" as="geometry" />
        </mxCell>
        <mxCell id="pOjfTVnRhu2lNELUSCSo-21" style="edgeStyle=orthogonalEdgeStyle;rounded=0;orthogonalLoop=1;jettySize=auto;html=1;entryX=1;entryY=0.5;entryDx=0;entryDy=0;endArrow=none;endFill=0;" parent="1" source="pOjfTVnRhu2lNELUSCSo-2" target="pOjfTVnRhu2lNELUSCSo-5" edge="1">
          <mxGeometry relative="1" as="geometry">
            <Array as="points">
              <mxPoint x="770" y="-190" />
              <mxPoint x="660" y="-190" />
              <mxPoint x="660" y="-230" />
              <mxPoint x="370" y="-230" />
              <mxPoint x="370" y="-290" />
            </Array>
          </mxGeometry>
        </mxCell>
        <mxCell id="pOjfTVnRhu2lNELUSCSo-25" style="edgeStyle=orthogonalEdgeStyle;rounded=0;orthogonalLoop=1;jettySize=auto;html=1;entryX=1;entryY=0.5;entryDx=0;entryDy=0;endArrow=none;endFill=0;" parent="1" source="pOjfTVnRhu2lNELUSCSo-2" target="pOjfTVnRhu2lNELUSCSo-8" edge="1">
          <mxGeometry relative="1" as="geometry" />
        </mxCell>
        <mxCell id="pOjfTVnRhu2lNELUSCSo-29" style="edgeStyle=orthogonalEdgeStyle;rounded=0;orthogonalLoop=1;jettySize=auto;html=1;entryX=1;entryY=0.5;entryDx=0;entryDy=0;endArrow=none;endFill=0;" parent="1" source="pOjfTVnRhu2lNELUSCSo-2" target="pOjfTVnRhu2lNELUSCSo-11" edge="1">
          <mxGeometry relative="1" as="geometry" />
        </mxCell>
        <mxCell id="pOjfTVnRhu2lNELUSCSo-33" style="edgeStyle=orthogonalEdgeStyle;rounded=0;orthogonalLoop=1;jettySize=auto;html=1;entryX=1;entryY=0.5;entryDx=0;entryDy=0;endArrow=none;endFill=0;" parent="1" source="pOjfTVnRhu2lNELUSCSo-2" target="pOjfTVnRhu2lNELUSCSo-31" edge="1">
          <mxGeometry relative="1" as="geometry" />
        </mxCell>
        <mxCell id="pOjfTVnRhu2lNELUSCSo-35" style="edgeStyle=orthogonalEdgeStyle;rounded=0;orthogonalLoop=1;jettySize=auto;html=1;entryX=1;entryY=0.5;entryDx=0;entryDy=0;endArrow=none;endFill=0;" parent="1" source="pOjfTVnRhu2lNELUSCSo-2" target="pOjfTVnRhu2lNELUSCSo-13" edge="1">
          <mxGeometry relative="1" as="geometry">
            <Array as="points">
              <mxPoint x="780" y="180" />
              <mxPoint x="470" y="180" />
            </Array>
          </mxGeometry>
        </mxCell>
        <mxCell id="pOjfTVnRhu2lNELUSCSo-36" style="edgeStyle=orthogonalEdgeStyle;rounded=0;orthogonalLoop=1;jettySize=auto;html=1;entryX=1;entryY=0.5;entryDx=0;entryDy=0;endArrow=none;endFill=0;" parent="1" source="pOjfTVnRhu2lNELUSCSo-2" target="pOjfTVnRhu2lNELUSCSo-14" edge="1">
          <mxGeometry relative="1" as="geometry">
            <Array as="points">
              <mxPoint x="780" y="270" />
            </Array>
          </mxGeometry>
        </mxCell>
        <mxCell id="pOjfTVnRhu2lNELUSCSo-38" style="edgeStyle=orthogonalEdgeStyle;rounded=0;orthogonalLoop=1;jettySize=auto;html=1;entryX=1;entryY=0.5;entryDx=0;entryDy=0;endArrow=none;endFill=0;" parent="1" source="pOjfTVnRhu2lNELUSCSo-2" target="pOjfTVnRhu2lNELUSCSo-15" edge="1">
          <mxGeometry relative="1" as="geometry">
            <Array as="points">
              <mxPoint x="780" y="430" />
            </Array>
          </mxGeometry>
        </mxCell>
        <mxCell id="pOjfTVnRhu2lNELUSCSo-2" value="Professor" style="shape=umlActor;verticalLabelPosition=bottom;verticalAlign=top;html=1;outlineConnect=0;" parent="1" vertex="1">
          <mxGeometry x="710" y="-105" width="60" height="100" as="geometry" />
        </mxCell>
        <mxCell id="pOjfTVnRhu2lNELUSCSo-40" style="edgeStyle=orthogonalEdgeStyle;rounded=0;orthogonalLoop=1;jettySize=auto;html=1;entryX=1;entryY=0.5;entryDx=0;entryDy=0;endArrow=none;endFill=0;" parent="1" source="pOjfTVnRhu2lNELUSCSo-3" target="pOjfTVnRhu2lNELUSCSo-15" edge="1">
          <mxGeometry relative="1" as="geometry">
            <Array as="points">
              <mxPoint x="730" y="600" />
              <mxPoint x="730" y="490" />
              <mxPoint x="575" y="490" />
              <mxPoint x="575" y="330" />
            </Array>
          </mxGeometry>
        </mxCell>
        <mxCell id="pOjfTVnRhu2lNELUSCSo-44" style="edgeStyle=orthogonalEdgeStyle;rounded=0;orthogonalLoop=1;jettySize=auto;html=1;entryX=1;entryY=0.5;entryDx=0;entryDy=0;endArrow=none;endFill=0;" parent="1" source="pOjfTVnRhu2lNELUSCSo-3" target="pOjfTVnRhu2lNELUSCSo-43" edge="1">
          <mxGeometry relative="1" as="geometry">
            <Array as="points">
              <mxPoint x="800" y="-260" />
              <mxPoint x="690" y="-260" />
              <mxPoint x="690" y="-280" />
            </Array>
          </mxGeometry>
        </mxCell>
        <mxCell id="pOjfTVnRhu2lNELUSCSo-3" value="Administrador" style="shape=umlActor;verticalLabelPosition=bottom;verticalAlign=top;html=1;outlineConnect=0;" parent="1" vertex="1">
          <mxGeometry x="750" y="550" width="60" height="100" as="geometry" />
        </mxCell>
        <mxCell id="pOjfTVnRhu2lNELUSCSo-20" style="edgeStyle=orthogonalEdgeStyle;rounded=0;orthogonalLoop=1;jettySize=auto;html=1;entryX=0;entryY=0.5;entryDx=0;entryDy=0;endArrow=none;endFill=0;" parent="1" source="pOjfTVnRhu2lNELUSCSo-4" target="pOjfTVnRhu2lNELUSCSo-5" edge="1">
          <mxGeometry relative="1" as="geometry">
            <Array as="points">
              <mxPoint x="75" y="-110" />
              <mxPoint x="140" y="-110" />
              <mxPoint x="140" y="-260" />
            </Array>
          </mxGeometry>
        </mxCell>
        <mxCell id="pOjfTVnRhu2lNELUSCSo-22" style="edgeStyle=orthogonalEdgeStyle;rounded=0;orthogonalLoop=1;jettySize=auto;html=1;entryX=0;entryY=0.5;entryDx=0;entryDy=0;endArrow=none;endFill=0;" parent="1" source="pOjfTVnRhu2lNELUSCSo-4" target="pOjfTVnRhu2lNELUSCSo-6" edge="1">
          <mxGeometry relative="1" as="geometry" />
        </mxCell>
        <mxCell id="pOjfTVnRhu2lNELUSCSo-23" style="edgeStyle=orthogonalEdgeStyle;rounded=0;orthogonalLoop=1;jettySize=auto;html=1;entryX=0;entryY=0.5;entryDx=0;entryDy=0;endArrow=none;endFill=0;" parent="1" source="pOjfTVnRhu2lNELUSCSo-4" target="pOjfTVnRhu2lNELUSCSo-7" edge="1">
          <mxGeometry relative="1" as="geometry" />
        </mxCell>
        <mxCell id="pOjfTVnRhu2lNELUSCSo-24" style="edgeStyle=orthogonalEdgeStyle;rounded=0;orthogonalLoop=1;jettySize=auto;html=1;entryX=0;entryY=0.5;entryDx=0;entryDy=0;endArrow=none;endFill=0;" parent="1" source="pOjfTVnRhu2lNELUSCSo-4" target="pOjfTVnRhu2lNELUSCSo-8" edge="1">
          <mxGeometry relative="1" as="geometry" />
        </mxCell>
        <mxCell id="pOjfTVnRhu2lNELUSCSo-28" style="edgeStyle=orthogonalEdgeStyle;rounded=0;orthogonalLoop=1;jettySize=auto;html=1;entryX=0;entryY=0.5;entryDx=0;entryDy=0;endArrow=none;endFill=0;" parent="1" source="pOjfTVnRhu2lNELUSCSo-4" target="pOjfTVnRhu2lNELUSCSo-10" edge="1">
          <mxGeometry relative="1" as="geometry">
            <Array as="points">
              <mxPoint x="140" y="-40" />
              <mxPoint x="140" y="25" />
            </Array>
          </mxGeometry>
        </mxCell>
        <mxCell id="pOjfTVnRhu2lNELUSCSo-30" style="edgeStyle=orthogonalEdgeStyle;rounded=0;orthogonalLoop=1;jettySize=auto;html=1;entryX=0;entryY=0.5;entryDx=0;entryDy=0;endArrow=none;endFill=0;" parent="1" source="pOjfTVnRhu2lNELUSCSo-4" target="pOjfTVnRhu2lNELUSCSo-12" edge="1">
          <mxGeometry relative="1" as="geometry">
            <Array as="points">
              <mxPoint x="75" y="80" />
              <mxPoint x="231" y="80" />
              <mxPoint x="231" y="155" />
            </Array>
          </mxGeometry>
        </mxCell>
        <mxCell id="pOjfTVnRhu2lNELUSCSo-41" style="edgeStyle=orthogonalEdgeStyle;rounded=0;orthogonalLoop=1;jettySize=auto;html=1;entryX=0;entryY=1;entryDx=0;entryDy=0;endArrow=none;endFill=0;" parent="1" source="pOjfTVnRhu2lNELUSCSo-4" target="pOjfTVnRhu2lNELUSCSo-16" edge="1">
          <mxGeometry relative="1" as="geometry">
            <mxPoint x="350" y="550" as="targetPoint" />
            <Array as="points">
              <mxPoint x="75" y="550" />
              <mxPoint x="250" y="550" />
              <mxPoint x="250" y="488" />
            </Array>
          </mxGeometry>
        </mxCell>
        <mxCell id="pOjfTVnRhu2lNELUSCSo-42" style="edgeStyle=orthogonalEdgeStyle;rounded=0;orthogonalLoop=1;jettySize=auto;html=1;entryX=0;entryY=0.5;entryDx=0;entryDy=0;endArrow=none;endFill=0;" parent="1" source="pOjfTVnRhu2lNELUSCSo-4" target="pOjfTVnRhu2lNELUSCSo-17" edge="1">
          <mxGeometry relative="1" as="geometry">
            <Array as="points">
              <mxPoint x="75" y="590" />
              <mxPoint x="360" y="590" />
            </Array>
          </mxGeometry>
        </mxCell>
        <mxCell id="pOjfTVnRhu2lNELUSCSo-4" value="Aluno" style="shape=umlActor;verticalLabelPosition=bottom;verticalAlign=top;html=1;outlineConnect=0;" parent="1" vertex="1">
          <mxGeometry x="40" y="-90" width="70" height="100" as="geometry" />
        </mxCell>
      </root>
    </mxGraphModel>
  </diagram>
</mxfile>
